<svg version="1" xmlns="http://www.w3.org/2000/svg" width="666.667" height="666.667" viewBox="0 0 500.000000 500.000000"><path d="M425 59.7c-5.8 1.7-9.3 4-11.5 7.7-2.3 4-5.1 12.6-6.1 18.3-.2 1.5-.6 3.7-.9 4.8-.2 1.1-.7 4.2-1 7-.4 2.7-.8 6.1-1.1 7.5-.2 1.4-.6 4.5-1 7-.3 2.5-.9 7-1.4 10-.5 3-1.1 7.7-1.4 10.5-.3 2.7-1.2 10.6-2 17.5s-1.8 15.6-2.1 19.5c-.3 3.8-.8 8.3-1 10-1.2 9.3-1.8 20.5-2.6 48.9-.3 11.6-1.5 16.1-4.7 17.5-1.8.9-7.8 1.2-19.2 1-18.1-.3-23.8-1-25.1-3-1-1.7.3-32.7 1.6-37.9.2-.8.7-4.4 1-8 .4-3.6.8-7.6 1-9 .2-1.4.6-4.5 1-7 .5-4 1.3-10.1 3-22.7.3-2.3.7-5.5.9-7 1.1-7.9 1.7-12.4 2.6-17.8.5-3.3 1.7-10.5 2.6-16 .8-5.5 1.7-11.1 2-12.5.2-1.4.7-4.1 1-6 .3-1.9 1.4-6.9 2.5-11.2 5-20.2-.4-27.4-20.2-27.1-16.9.2-21.3 5.3-22.4 25.9-.7 14.3-1.7 27.7-2.1 29.9-.2 1.1-.8 5.6-1.4 10-.6 4.4-1.2 9.1-1.5 10.5-.2 1.4-.6 4.5-.9 7-.5 4.5-1.4 11-2.2 16-1.3 8-4.4 32.6-4.9 39-.3 4.1-.8 8.6-1 10-.2 1.4-.7 5.9-1.1 10-.3 4.1-.8 8.8-1 10.5-.1 1.6-.6 6.4-.9 10.5-.4 4.1-.8 8.6-1 10-.2 1.4-.7 6.5-1 11.5-.4 4.9-.8 10.1-1 11.5-.2 1.4-.7 5.6-1 9.5-.4 3.8-.8 9-1.1 11.5-.2 2.5-.6 7.4-.9 11-.4 3.6-.8 8.1-1 10-.2 1.9-.7 6.6-1 10.5-1.1 12.4-3.9 36.1-5.5 45.5-.5 3-1.2 7.5-1.5 10-.3 2.5-.8 5.6-1 7-2.2 13.4-2.5 32.9-.6 38.4 5.2 15.1 26.6 16.7 38 2.9 8.5-10.3 14.8-38.3 8.6-38.3-.6 0-1.6.5-2.2 1.1-.6.6-1.7.8-2.3.4-1.2-.7-1-4.7.5-17 .2-1.7.6-6.8 1-11.5s.9-8.7 1-9c.2-.3.6-4.1 1-8.5.3-4.4.8-9.6 1-11.5.2-1.9.6-7.8 1-13 .3-5.2.8-10.9 1-12.5.2-1.7.6-6.4 1-10.5.8-10.4 2.4-17.6 4-19 .8-.6 5.1-1.3 9.7-1.5 22.5-1.1 30.6-1.6 34.4-2.1 2.7-.3 4.4-.1 5.1.8.6.7 1.4 5.6 1.8 10.8.4 5.2.9 11.1 1.2 13 .2 1.9.6 25.1.8 51.5.3 47.4.7 53.1 3.8 57.9 5.1 7.8 25.5 9.4 32.9 2.6 4.7-4.3 6-18.7 4.4-49-.5-8-1-21.7-1.2-30.5-.5-25.8-.6-121.4-.1-129 .3-3.9.8-12.2 1.2-18.5.4-6.3.8-13.1 1-15 .2-1.9.6-6.4 1-10 .3-3.6 1-9.2 1.5-12.5.5-3.3 1.2-8 1.5-10.5.4-2.5 2.2-12.4 4.2-22 1.9-9.6 3.7-18.4 3.9-19.5.2-1.1 1.5-7.6 2.9-14.4 3.1-15.3 3.1-17.3.1-20.8-2.4-2.7-2.7-2.8-13.3-2.9-5.9-.1-11.5.1-12.3.3zM111 98.7c-26.8 2.8-48.3 12.5-58.7 26.5-2.9 4-2.9 6.6.2 13.2 2.4 5.1 2.4 5.4 1.1 12.7-1.5 7.6-2.4 15.3-3.2 24.9-.5 5.7-.7 9.1-2 34.5-1.4 25.2-1.1 118.3.3 123.1 2.4 7.9 6.4 10.5 15 9.9 5.9-.4 15.4-3.3 18.6-5.8.9-.6 2.3-2.9 3.2-4.9 1.3-3.2 1.4-8.1 1-32-.6-35.6-.6-83.5 0-95.3.7-13.8 1.5-25.8 2-28.6.2-1.3.6-4.2 1-6.4 1.6-10.9 6.3-24.6 10.6-31 3.3-4.9 9.5-10.7 13.7-12.9 9.8-5 29-7 40.2-4.1 6.4 1.7 16.6 6.3 19.1 8.7.8.7 3.1 2.6 5.1 4.1 5.5 4 14.1 15.1 18.1 23.2 9.8 19.6 12.5 41.8 8.3 68.5-3.5 22.7-18.8 53.3-40.7 81.6-11.6 15-19.7 23.1-36.9 36.8-2.4 1.9-16 11.1-22 14.8-7 4.4-10.6 5.5-20 6.2-16.1 1.2-23.8 4.5-26 11.1-2.5 7.5 1.3 16.5 8.5 20.3 3.2 1.6 16.7 2.1 25.7.8 11.5-1.6 34.5-10.3 43.7-16.5 1.4-1 4.6-3.1 7.1-4.7 4.4-2.8 14.6-10.3 20.5-15.2 1.7-1.3 6.4-5.7 10.5-9.6 24.6-23.6 39.8-45.5 54.8-78.6 3.3-7.3 9.1-24.8 11.8-35.2 6.9-27.3 6.7-54.1-.6-75.9-9.4-27.8-30.9-47.9-62.5-58.7-13.1-4.4-21.1-5.5-43-5.7-11.5-.1-22.6 0-24.5.2z"/></svg>