<?xml version="1.0" encoding="utf-8"?>
<!-- Generator: Adobe Illustrator 16.0.4, SVG Export Plug-In . SVG Version: 6.00 Build 0)  -->
<!DOCTYPE svg PUBLIC "-//W3C//DTD SVG 1.1//EN" "http://www.w3.org/Graphics/SVG/1.1/DTD/svg11.dtd">
<svg version="1.1" id="danielSignatureBlack" xmlns="http://www.w3.org/2000/svg" xmlns:xlink="http://www.w3.org/1999/xlink" x="0px" y="0px"
	 width="500.317px" height="112.131px" viewBox="62.436 305.641 500.317 112.131"
	 enable-background="new 62.436 305.641 500.317 112.131" xml:space="preserve">
<path fill="#000000" d="M502.83,344.9c-0.17-0.09-0.4-0.08-0.73,0.09c-1.689,0.86-2.529,3.34-3.479,4.86
	c-1.21,1.94-2.25,3.97-3.32,5.98c-2.22,4.18-4.04,8.58-5.41,13.11c-1.97,6.53-2.569,13.14-3.439,19.86
	c-0.021,0.15-0.04,0.29-0.061,0.44c-0.439,3.35-1.05,6.69-2.1,9.899c-0.42,1.261-1.16,2.71-2.49,2.79
	c-1.12,0.061-2.02-0.949-2.479-1.97c-1.36-3.05-0.591-6.85-0.33-10.06c0.3-3.8,0.71-7.6,1.149-11.39c0.87-7.58,1.84-15.16,2.3-22.78
	c0.12-2.06,0.211-4.12,0.25-6.18c0.07-3.76-0.359-7.55-0.069-11.3c0.14-1.83,0.479-3.94,1.77-5.34c0.91-0.99,2.5-1.63,3.8-1.1
	c1.811,0.74,1.79,2.74,1.711,4.36c-0.24,4.87-0.471,9.73-0.711,14.6c-0.02,0.33-0.01,0.71,0.25,0.92c0.45,0.36,1.07-0.18,1.381-0.67
	c2.529-3.89,4.89-7.89,7.58-11.67c1.689-2.37,3.489-4.68,5.319-6.95c1.28-1.59,3.22-5.22,5.41-5.53c0.7-0.1,1.42,0.04,2.09,0.28
	c0.7,0.25,1.41,0.64,1.74,1.3c0.6,1.21-0.1,3-0.34,4.22c-0.32,1.68-0.641,3.35-0.96,5.03c-1.96,10.26-3.92,20.52-5.87,30.79
	c-0.13,0.7-0.26,1.71,0.57,2.02c0.479,0.18,1.029,0.02,1.439-0.29c0.41-0.31,0.7-0.75,0.96-1.19c1.54-2.62,3.61-4.91,5.63-7.16
	c2.391-2.66,5.271-5.51,9.15-3.59c1.62,0.8,2.79,2.29,3.72,3.83c1.92,3.2,3.01,6.82,4.12,10.39c2.9,9.37,6.11,19.13,11.93,27.16
	c2.681,3.7,6.561,7.89,11.15,9.09c1.01,0.26,2.13,0.28,3.08-0.17c1.09-0.521,1.97-1.641,3.18-1.61c1.26,0.03,2.15,1.45,2.021,2.71
	c-0.32,3.03-4.49,5.181-7.09,5.971c-4.78,1.449-8.79-0.381-12.16-3.771c-9.42-9.5-14-21.98-18.16-34.4
	c-1.03-3.08-2.23-6.12-3.92-8.91c-0.91-1.5-1.97-2.11-3.311-0.68c-3.029,3.24-5.699,6.79-8.359,10.33
	c-1.33,1.77-2.67,3.55-4.05,5.28c-0.931,1.16-2.551,4.54-4.471,3.66c-0.62-0.28-1.029-0.87-1.33-1.48
	c-0.699-1.4-0.92-2.99-1.06-4.54c-0.55-5.97-0.03-11.97,0.939-17.86c0.511-3.15,1.23-6.26,1.921-9.37
	c0.34-1.56,0.68-3.12,0.979-4.68c0.15-0.79,0.36-1.57,0.47-2.37C503.2,346.15,503.28,345.15,502.83,344.9z"/>
<path fill="#000000" d="M114.75,366.65c-0.95,5.33-2.75,10.56-4.91,15.39c-3.02,6.74-7.09,13.01-12.08,18.46
	c-5.62,6.14-12.4,11.51-20.04,14.88c-1.61,0.71-3.28,1.28-4.94,1.84c-1.14,0.38-2.37,0.74-3.54,0.44c-0.85-0.22-1.59-0.78-2.15-1.46
	c-1.03-1.26-1.5-2.96-1.25-4.561c0.58-3.75,3.57-4.84,6.77-3.319c2.07,0.989,4.81-0.9,6.56-1.86c2.11-1.15,4.05-2.58,5.99-3.979
	c3.66-2.631,7.18-5.671,10.01-9.19c4.31-5.33,8.28-11.09,11-17.41c0.24-0.57,0.48-1.14,0.7-1.72c3.05-7.9,3.75-16.74,0.87-24.79
	c-2.47-6.89-7.81-12.38-15.16-13.85c-3.17-0.64-6.44-0.61-9.66-0.3c-2.71,0.26-5.5,0.76-7.72,2.33c-2.36,1.66-3.8,4.34-4.75,7.06
	c-2.1,6-2.1,12.38-2.33,18.65c-0.3,8.14-0.03,16.29,0.1,24.44c0.06,3.6,0.12,7.23-0.29,10.81c-0.23,1.98-2.13,4.62-4.04,2.2
	c-0.62-0.78-0.81-1.82-0.94-2.81c-0.79-6.18-0.44-12.65-0.42-18.88c0.01-4.26,0.07-8.52,0.17-12.79c0.1-4.05,0.64-8.14,0.64-12.18
	c0.33-3.7,0.57-7.4,1.34-11.04c0.21-0.98-0.18-1.85-0.68-2.59c-1.29-1.87-0.52-3.23,0.82-4.64c2.32-2.45,5.9-4.34,9.03-5.51
	c3.52-1.31,7.32-1.8,11.06-1.61c10.96,0.56,22.57,5.61,27.49,15.9C115.74,351.57,116.08,359.2,114.75,366.65z"/>
<path fill="#000000" d="M420.39,376.92c0.141-0.49,0.29-0.97,0.45-1.44c2.16-6.43,7.2-13.35,14.78-12.6
	c2.7,0.27,5.33,1.14,7.87,2.06c1.279,0.46,4.5,2.33,5.39,0.87c0.46-0.75,0.45-1.78,0.68-2.61c1.881-6.68,4.771-13.23,9.58-18.23
	c1.2-1.25,2.551-2.41,4.16-3.05c1.61-0.64,3.53-0.69,5.01,0.22c2.811,1.72,3.131,5.8,3.32,8.74c0.18,2.87-0.189,5.78-1.12,8.5
	c-2.17,6.36-7.2,11.07-13.26,13.76c-1.44,0.64-2.12,1.5-2.34,3.13c-0.5,3.8,0.07,7.75,1.83,11.17c1.399,2.71,3.63,5.79,6.56,6.95
	c0.99,0.39,2.141,0.49,3.12,0.07c1.5-0.65,2.28-2.35,3.65-3.23c0.479-0.31,1.16-0.49,1.569-0.1c0.4,0.39,0.261,1.06,0.061,1.58
	c-2.04,5.35-7.28,9.21-13.11,7.16c-3.81-1.34-6.79-4.88-8.49-8.44c-1.579-3.31-2.229-7.02-2.13-10.68c0.04-1.61,0.36-3.61-0.51-5.06
	c-0.82-1.38-2.49-1.81-3.88-2.37c-2.74-1.09-5.64-2.39-8.64-2.34c-2.79,0.05-5.33,2.16-6.601,4.51c-0.87,1.62-1.32,3.44-1.62,5.27
	c-0.87,5.29-0.58,10.78-2.3,15.93c-0.439,1.31-1.92,5.439-3.76,5.119c-0.49-0.09-0.83-0.529-1.09-0.949
	c-2.04-3.36-1.73-7.53-1.41-11.291C418.55,385.3,419.18,381.04,420.39,376.92z M455.19,367.14c0.38,0.19,1.689-0.57,2.04-0.71
	c1.01-0.41,2.029-0.81,2.949-1.41c2.101-1.37,3.811-3.34,4.88-5.61c0.671-1.42,1.091-2.96,1.23-4.53c0.1-1.06,0.4-3.33-0.47-4.1
	c-1.79-1.56-4.55,2.09-5.45,3.24c-2.93,3.75-4.75,8.35-5.19,13.09C455.18,367.13,455.18,367.13,455.19,367.14z"/>
<path fill="#000000" d="M379.85,379.36c0.21-1.15,0.49-2.29,0.841-3.41c2.05-6.53,6.63-12.69,13.55-14.4
	c0.79-0.2,1.66-0.36,2.22-0.95c0.61-0.63,0.72-1.57,0.8-2.43c0.34-3.68,0.67-7.36,1.08-11.03c0.38-3.39,0.561-7.13,1.641-10.39
	c0.399-1.21,1.119-2.38,2.25-2.98c1.319-0.71,3.01-0.38,3.739,1c0.48,0.92,0.511,2,0.53,3.04c0,7.35,0.25,14.69,0.18,22.04
	c-0.069,7.67-0.18,15.34,0.011,23c0,0.01,0,0.03,0,0.04c0.13,5.16,0.899,10.22,3.85,14.57c0.94,1.39,1.39,2.74,0.16,4.19
	c-0.3,0.35-0.66,0.67-1.101,0.819c-0.93,0.311-1.93-0.2-2.72-0.8c-1.33-1-2.439-2.28-3.27-3.72c-0.82-1.431-1-3.22-2.03-4.51
	c-0.24-0.3-0.6-0.59-0.97-0.48c-0.28,0.08-0.44,0.36-0.58,0.62c-1.261,2.33-2.75,4.95-5.24,6.189c-1.42,0.9-3.04,1.521-4.72,1.61
	c-3.54,0.2-6.511-1.66-8.311-4.68c-1.39-2.33-1.979-5.06-2.25-7.76C379.19,385.75,379.27,382.51,379.85,379.36z M389.42,394.59
	c1.271,0.3,2.71,0.1,3.85-0.41c1.851-0.82,3.261-2.46,4.091-4.31s1.13-3.89,1.199-5.92c0.101-2.9-0.26-5.79-0.659-8.65
	c-0.181-1.3-0.381-2.59-0.58-3.88c-0.08-0.53-0.17-1.07-0.471-1.51c-2.02-3.09-7.25,2.97-8.35,4.5c-3.23,4.49-3.47,10.54-2.31,15.94
	c0.31,1.42,0.779,3.09,2.13,3.83C388.66,394.36,389.03,394.5,389.42,394.59z"/>
<path fill="#000000" d="M232.65,364.02c-1.58,7.44-5.62,14.83-13.35,15.98c-0.4,0.06-0.83,0.11-1.16,0.34
	c-0.44,0.31-0.6,0.9-0.55,1.44c0.43,4.27,4.03,9.18,7.52,11.48c0.68,0.45,1.42,0.85,2.22,0.92c1.39,0.12,2.67-0.75,3.62-1.78
	c1.57-1.7,2.9-3.52,4.69-5.01c0.49-0.41,1.17-0.82,1.73-0.51c0.67,0.36,0.54,1.35,0.28,2.07c-1.93,5.39-7.69,14.479-14.64,12.33
	c-3.25-1-6.15-4.34-8.01-7.021c-1.77-2.56-3.22-5.34-4.36-8.23c-1.06-2.69-1.3-6.11-3.03-8.44c-0.57-0.76-1.28-1.44-1.65-2.31
	c-0.48-1.13-0.28-2.52,0.5-3.47c0.66-0.8,1.65-1.27,2.32-2.07c0.81-0.96,1.03-2.27,1.26-3.51c0.81-4.44,2.04-8.87,4.32-12.76
	c2.45-4.18,9-11.39,14.56-8.45c3,1.59,4.15,6.05,4.45,9.13C233.68,357.42,233.34,360.82,232.65,364.02z M215.79,368.63
	c-0.06,0.22-0.12,0.44-0.18,0.66c-0.86,3.18,2.42,3.46,4.75,2.63c2.57-0.91,4.65-3.17,5.83-5.58c1.3-2.66,1.7-5.66,1.69-8.6
	c-0.01-1.63-0.42-4.82-2.75-4.14c-2.72,0.79-5.06,4.58-6.3,6.92C217.46,363.08,216.56,365.84,215.79,368.63z"/>
<path fill="#000000" d="M118.81,379.56c0.76-3.25,1.82-6.44,3.39-9.38c1.52-2.84,3.59-5.57,6.18-7.53c2.47-1.88,5.46-3.96,8.71-3.83
	c2.2,0.08,4.53,1.49,5.86,3.2c1.47,1.9,0.98,4.38,0.7,6.56c-0.09,0.68,0.04,1.48,0.63,1.84c0.45,0.27,1.02,0.2,1.5,0.41
	c0.65,0.3,0.95,1.05,1.15,1.74c1.16,4.11,0.89,8.41,0.83,12.62c-0.03,2.11,0,4.22,0.29,6.32c0.29,2.12,1.05,4.12,1.71,6.16
	c0.12,0.36,0.23,0.73,0.16,1.1c-0.15,0.841-1.16,1.221-2.01,1.221c-2.72,0.01-4.42-2.03-5.61-4.2c-0.27-0.48-0.71-0.95-1.26-0.95
	c-0.5,0-0.91,0.37-1.25,0.73c-1.41,1.49-2.58,3.26-4.32,4.36c-1.68,1.061-3.72,1.391-5.71,1.48c-2.2,0.1-4.46-0.09-6.47-0.98
	c-2.95-1.3-4.42-3.989-5.12-7.02c-0.94-4.04-0.52-8.28,0.31-12.35C118.58,380.56,118.69,380.06,118.81,379.56z M124.26,381.29
	c-0.07,0.21-0.13,0.43-0.2,0.64c-0.71,2.38-0.92,4.98-0.12,7.33c0.8,2.35,2.72,4.4,5.14,4.94c3.21,0.71,6.52-1.38,8.27-4.16
	c1.54-2.44,2.12-5.3,2.59-8.1c0.38-2.24,0.69-4.5,0.74-6.77c0.04-1.88,0.24-4.35-0.66-6.05c-0.24-0.45-0.57-0.85-1-1.12
	c-0.87-0.54-2-0.47-2.98-0.15C129.88,369.86,126.17,375.34,124.26,381.29z"/>
<path fill="#000000" d="M256.16,313.06c-0.64,2.85-1.64,5.61-2.35,8.44c-0.9,3.59-1.58,7.23-2.11,10.89
	c-1.06,7.34-1.5,14.74-1.9,22.14c-0.14,2.51-0.27,5.01-0.42,7.52c-0.53,8.77-0.95,17.54-1.22,26.32c-0.11,3.56-0.18,7.13-0.27,10.7
	c-0.02,0.729,0.04,1.6,0.66,1.979c0.3,0.181,0.66,0.2,0.96,0.38c0.51,0.311,0.65,1.011,0.49,1.58c-0.38,1.311-2.09,3.07-3.4,3.45
	c-1.48,0.43-3.12-0.41-3.99-1.689c-0.87-1.28-1.1-2.881-1.11-4.431c-0.04-15.28,1.11-30.52,2.09-45.76
	c0.51-7.94,1.13-15.88,2.14-23.78c0.55-4.32,1.22-8.64,2.31-12.86c0.85-3.28,1.84-8.97,5.23-10.65c0.6-0.3,1.32-0.41,1.94-0.16
	c0.71,0.29,1.18,1.01,1.35,1.76s0.08,1.53-0.04,2.29C256.42,311.82,256.3,312.44,256.16,313.06z"/>
<path fill="#000000" d="M162.91,385.95c-0.39,3.85-0.49,7.98-2.51,11.41c-0.33,0.56-0.76,1.13-1.39,1.25
	c-2.13,0.409-3.19-3.2-3.57-4.67c-1.79-6.96,0.88-14.42,3.17-20.92c0.99-2.8,2.03-5.66,3.97-7.9c2.45-2.82,6.63-3.91,9.92-1.84
	c4.05,2.54,5.01,7.71,6.23,11.96c1.13,3.95,2.36,7.87,3.66,11.76c1.18,3.52,3.03,7.16,3.03,10.95c-0.01,1.479-0.63,3.479-2.44,3.41
	c-1.54-0.07-2.24-1.561-2.9-2.73c-0.97-1.72-1.85-3.49-2.63-5.31c-1.99-4.62-2.99-9.44-4.27-14.28c-0.62-2.34-1.35-6.4-3.85-7.46
	c-1.01-0.43-2.22,0-3.01,0.76c-3.02,2.89-2.89,8.29-3.28,12.12C163.01,384.96,162.96,385.46,162.91,385.95z"/>
<path fill="#000000" d="M369.73,342.39c-1.141,12.8-1.5,25.67-1.19,38.51c0.05,2.17,0.12,4.34,0.21,6.5
	c0.01,0.23,0.02,0.46,0.03,0.69c0.06,1.41,0.109,2.8,0.109,4.2c0.011,0.27,0.021,0.57,0.2,0.78c0.521,0.61,1.59-0.2,2.311,0.17
	c0.569,0.3,0.529,1.12,0.369,1.74c-0.689,2.69-3.369,8.71-7.189,6.68c-1.76-0.94-2-3.32-2.021-5.32
	c-0.109-15.54,0.051-31.08,0.49-46.61c0.09-3.35,0.25-6.71,0.351-10.06c0.04-1.22-0.061-2.44,0.09-3.66
	c0.069-0.56,0.16-1.13,0.37-1.66c0.109-0.29,0.79-1.08,0.79-1.3c0.71-1.03,1.909-1.79,3.17-1.73c3.18,0.15,2.569,4.43,2.34,6.62
	C370,339.43,369.86,340.91,369.73,342.39z"/>
<path fill="#000000" d="M191.03,378.51c0.24-3.37,1.08-8.67,5.15-8.02c2.95,0.47,1.63,6.4,1.63,8.39c0.01,3.85,0.27,7.72,1.24,11.46
	c0.61,2.33,1.49,4.78,0.76,7.08c-0.3,0.95-0.92,1.84-1.83,2.24c-2.09,0.92-3.4-1.38-4.04-2.98c-2.13-5.36-3.24-11.15-2.99-16.92
	C190.98,379.39,191,378.97,191.03,378.51z"/>
<g>
	<path fill="#000000" d="M295.71,397.99c0.06-0.391,0.12-0.79,0.19-1.181c0.83-5.169,1.24-10.41,1.74-15.64
		c0.15-1.55,0.28-3.11,0.44-4.66c0.73-7.75,1.45-15.51,2.16-23.26c0.5-5.44,1.1-10.87,1.89-16.28c0.5-3.41,0.97-6.83,1.39-10.26
		c0.32-2.61,0.88-5.2,0.96-7.83c0.09-2.84,0.24-5.7,0.84-8.49c0.17-0.81,0.39-1.62,0.82-2.33c0.42-0.71,1.091-1.31,1.891-1.5
		c0.95-0.22,1.97,0.17,2.64,0.88c1.96,2.07,0.8,5.39,0.41,7.83c-0.49,3.05-1.11,6.08-1.6,9.14c-0.71,4.42-1.351,8.86-1.921,13.3
		c-0.92,7.13-2.08,14.47-2.08,21.65c-0.01,0.39-0.01,0.82,0.23,1.13c0.28,0.36,0.771,0.45,1.22,0.51c2.65,0.37,5.29,0.84,7.971,0.85
		c2.939,0.01,5.84-0.39,8.76-0.63c0.64-0.05,1.34-0.24,1.7-0.77c0.22-0.31,0.29-0.7,0.35-1.07c0.48-3,0.38-6.04,0.44-9.06
		c0.06-2.92,0.35-5.85,0.609-8.76c0.67-7.65,1.58-15.28,2.75-22.87c0.59-3.82,0.82-9.91,4.301-12.37
		c0.949-0.67,2.359-1.02,3.199-0.21c0.311,0.3,0.49,0.72,0.59,1.14c0.25,1.05,0.08,2.15-0.1,3.22c-1.24,7.4-3.2,14.67-4.16,22.11
		c-0.979,7.56-1.279,15.18-1.54,22.79c-0.029,0.76-0.05,1.52-0.08,2.28c-0.069,2.1,0.7,3.56,2.91,3.65
		c2.65,0.11,5.311-0.07,7.931-0.49c1.1-0.18,2.21-0.41,3.159-0.98c0.69-0.41,1.271-0.98,1.96-1.39c0.69-0.41,1.551-0.66,2.29-0.35
		c1.271,0.54,1.4,2.25,1.33,3.63c0,4.01-0.42,8.01-0.41,12.03c0.021,4.12,0.24,8.24,0.75,12.33c0.351,2.87,1.021,6.27-0.819,8.78
		c-0.641,0.87-1.67,1.581-2.74,1.42c-1.1-0.17-1.87-1.18-2.33-2.2c-1.66-3.68-1.05-8.23-1.14-12.16
		c-0.101-4.54-0.261-9.08-0.38-13.62c-0.011-0.26-0.021-0.53-0.171-0.74c-0.159-0.23-0.449-0.33-0.72-0.4
		c-1.75-0.45-3.46,0.04-5.17,0.42c-1.89,0.43-3.74,0.82-5.479,1.7c-0.25,0.13-0.511,0.26-0.65,0.5c-0.13,0.22-0.14,0.49-0.14,0.74
		c-0.03,3.7,0.06,7.4,0.08,11.1c0.039,4.52,0.079,9.05,0.329,13.56c0.2,3.45,0.511,6.93,0.171,10.39
		c-0.171,1.779-0.881,8.359-4.181,5.739c-0.84-0.659-1.21-1.739-1.47-2.77c-1.51-6.12-0.34-12.65-0.48-18.88
		c-0.14-6.33-0.29-12.63-1.01-18.93c-0.03-0.23-0.07-0.48-0.25-0.62c-0.149-0.11-0.35-0.11-0.53-0.1
		c-6.229,0.21-12.449,0.6-18.68,0.9c-0.44,0.02-0.9,0.05-1.25,0.32c-0.43,0.33-0.55,0.92-0.64,1.46c-0.8,5.1-0.95,10.25-1.45,15.38
		c-0.51,5.32-1.06,10.63-1.64,15.94c-0.02,0.17-0.03,0.351,0.06,0.49c0.17,0.26,0.57,0.19,0.84,0.03s0.52-0.391,0.83-0.38
		c0.59,0.01,0.78,0.81,0.75,1.399c-0.15,3.891-1.51,7.61-3.86,10.7c-0.45,0.59-0.98,1.19-1.7,1.39c-1.08,0.301-2.23-0.43-2.77-1.409
		c-0.54-0.98-0.61-2.141-0.63-3.261C294.34,407.95,294.94,402.95,295.71,397.99z"/>
	<path fill="#000000" d="M353.58,341.44c-0.08,0.3-0.18,0.58-0.32,0.86c-0.609,1.19-1.76,1.69-3.029,1.28
		c-2.181-0.69-3.33-3.32-2.73-5.44c0.43-1.49,2.27-3.36,3.9-3.38c2.51-0.03,2.6,3.77,2.399,5.51
		C353.75,340.66,353.68,341.06,353.58,341.44z"/>
</g>
<path fill="#000000" d="M191.25,356.16c0.06-0.25,0.15-0.5,0.26-0.73c0.71-1.48,2.78-2.87,4.38-1.99c1.49,0.82,1.81,2.8,2.08,4.33
	c0.11,0.62,0.22,1.28,0,1.88c-0.26,0.7-0.95,1.16-1.67,1.38c-1.48,0.45-3.21-0.06-4.22-1.23
	C191.25,358.8,190.95,357.41,191.25,356.16z"/>
</svg>
